{
  "accessors": [
    {
      "bufferView": 2,
      "componentType": 5126,
      "count": 96,
      "max": [
        16.88507843017578,
        11.159346580505371,
        0.6124100089073181
      ],
      "min": [
        -16.88507843017578,
        -11.159347534179688,
        -0.612405002117157
      ],
      "type": "VEC3"
    },
    {
      "bufferView": 2,
      "byteOffset": 1152,
      "componentType": 5126,
      "count": 96,
      "max": [
        0.955119788646698,
        0.9888317584991455,
        0.9660016298294067
      ],
      "min": [
        -0.955119788646698,
        -0.9888317584991455,
        -1.0
      ],
      "type": "VEC3"
    },
    {
      "bufferView": 1,
      "componentType": 5126,
      "count": 96,
      "max": [
        1.0,
        1.0
      ],
      "min": [
        0.0,
        0.0
      ],
      "type": "VEC2"
    },
    {
      "bufferView": 0,
      "componentType": 5125,
      "count": 198,
      "type": "SCALAR"
    },
    {
      "bufferView": 2,
      "byteOffset": 2304,
      "componentType": 5126,
      "count": 16,
      "max": [
        14.380681991577148,
        9.504191398620605,
        -0.05785499885678291
      ],
      "min": [
        -14.380681991577148,
        -9.504192352294922,
        -0.05785499885678291
      ],
      "type": "VEC3"
    },
    {
      "bufferView": 2,
      "byteOffset": 2496,
      "componentType": 5126,
      "count": 16,
      "max": [
        0.0,
        -0.0,
        1.0
      ],
      "min": [
        0.0,
        -0.0,
        1.0
      ],
      "type": "VEC3"
    },
    {
      "bufferView": 1,
      "byteOffset": 768,
      "componentType": 5126,
      "count": 16,
      "max": [
        0.976718008518219,
        0.998075008392334
      ],
      "min": [
        0.4058539867401123,
        0.5900279879570007
      ],
      "type": "VEC2"
    },
    {
      "bufferView": 0,
      "byteOffset": 792,
      "componentType": 5125,
      "count": 54,
      "type": "SCALAR"
    }
  ],
  "asset": {
    "extras": {
      "author": "Inditrion Dradnon (https://sketchfab.com/dradnon)",
      "license": "CC-BY-4.0 (http://creativecommons.org/licenses/by/4.0/)",
      "source": "https://sketchfab.com/3d-models/tablet-pc-554390d3562640f589acc9500fdac326",
      "title": "Tablet PC"
    },
    "generator": "Sketchfab-12.64.0",
    "version": "2.0"
  },
  "bufferViews": [
    {
      "buffer": 0,
      "byteLength": 1008,
      "name": "floatBufferViews",
      "target": 34963
    },
    {
      "buffer": 0,
      "byteLength": 896,
      "byteOffset": 1008,
      "byteStride": 8,
      "name": "floatBufferViews",
      "target": 34962
    },
    {
      "buffer": 0,
      "byteLength": 2688,
      "byteOffset": 1904,
      "byteStride": 12,
      "name": "floatBufferViews",
      "target": 34962
    }
  ],
  "buffers": [
    {
      "byteLength": 4592,
      "uri": "scene.bin"
    }
  ],
  "extensionsUsed": [
    "KHR_texture_transform"
  ],
  "images": [
    {
      "uri": "textures/MaterialFBXASC032FBXASC0352142150880_baseColor.jpeg"
    },
    {
      "uri": "textures/MaterialFBXASC032FBXASC0352142171811_emissive.jpeg"
    }
  ],
  "materials": [
    {
      "doubleSided": true,
      "name": "MaterialFBXASC032FBXASC0352142150880",
      "pbrMetallicRoughness": {
        "baseColorTexture": {
          "index": 0
        },
        "metallicFactor": 0.0
      }
    },
    {
      "doubleSided": true,
      "emissiveFactor": [
        1.0,
        1.0,
        1.0
      ],
      "emissiveTexture": {
        "extensions": {
          "KHR_texture_transform": {
            "offset": [
              -0.6763806041302352,
              0.006667245380225895
            ],
            "scale": [
              1.726975019726468,
              2.0000000000000027
            ]
          }
        },
        "index": 1
      },
      "name": "MaterialFBXASC032FBXASC0352142171811",
      "pbrMetallicRoughness": {
        "baseColorFactor": [
          0.0,
          0.0,
          0.0,
          1.0
        ],
        "metallicFactor": 0.0
      }
    }
  ],
  "meshes": [
    {
      "name": "MaterialFBXASC032FBXASC0352142150880",
      "primitives": [
        {
          "attributes": {
            "NORMAL": 1,
            "POSITION": 0,
            "TEXCOORD_0": 2
          },
          "indices": 3,
          "material": 0,
          "mode": 4
        }
      ]
    },
    {
      "name": "MaterialFBXASC032FBXASC0352142171811",
      "primitives": [
        {
          "attributes": {
            "NORMAL": 5,
            "POSITION": 4,
            "TEXCOORD_0": 6
          },
          "indices": 7,
          "material": 1,
          "mode": 4
        }
      ]
    }
  ],
  "nodes": [
    {
      "children": [
        1
      ],
      "matrix": [
        1.0,
        0.0,
        0.0,
        0.0,
        0.0,
        2.220446049250313e-16,
        -1.0,
        0.0,
        0.0,
        1.0,
        2.220446049250313e-16,
        0.0,
        0.0,
        0.0,
        0.0,
        1.0
      ],
      "name": "Sketchfab_model"
    },
    {
      "children": [
        2
      ],
      "matrix": [
        1.0,
        0.0,
        0.0,
        0.0,
        0.0,
        -4.371139006309477e-08,
        0.999999999999999,
        0.0,
        0.0,
        -0.999999999999999,
        -4.371139006309477e-08,
        0.0,
        0.0,
        0.0,
        0.0,
        1.0
      ],
      "name": "Collada visual scene group"
    },
    {
      "children": [
        3,
        4
      ],
      "matrix": [
        0.136686,
        0.0,
        0.0,
        0.0,
        0.0,
        0.0,
        -0.12709,
        0.0,
        0.0,
        0.12709,
        0.0,
        0.0,
        21.298855,
        10.330921,
        -15.002583,
        1.0
      ],
      "name": "TabletFBXASC032PCFBXASC032neu"
    },
    {
      "mesh": 0,
      "name": "MaterialFBXASC032FBXASC0352142150880"
    },
    {
      "mesh": 1,
      "name": "MaterialFBXASC032FBXASC0352142171811"
    }
  ],
  "samplers": [
    {
      "magFilter": 9729,
      "minFilter": 9987,
      "wrapS": 10497,
      "wrapT": 10497
    }
  ],
  "scene": 0,
  "scenes": [
    {
      "name": "Sketchfab_Scene",
      "nodes": [
        0
      ]
    }
  ],
  "textures": [
    {
      "sampler": 0,
      "source": 0
    },
    {
      "sampler": 0,
      "source": 1
    }
  ]
}
